<?xml version="1.0" standalone="no"?>
<!DOCTYPE svg PUBLIC "-//W3C//DTD SVG 20010904//EN"
 "http://www.w3.org/TR/2001/REC-SVG-20010904/DTD/svg10.dtd">
<svg version="1.0" xmlns="http://www.w3.org/2000/svg"
 width="626.000000pt" height="626.000000pt" viewBox="0 0 626.000000 626.000000"
 preserveAspectRatio="xMidYMid meet">

<g transform="translate(0.000000,626.000000) scale(0.100000,-0.100000)"
fill="#000000" stroke="none">
<path d="M3043 4732 c-168 -60 -282 -262 -313 -552 -5 -52 -10 -102 -10 -111
0 -15 -17 -17 -122 -21 -189 -5 -219 -32 -243 -218 -14 -105 -18 -115 -50
-151 -19 -22 -35 -43 -35 -48 0 -5 -3 -18 -7 -28 -4 -12 2 -9 20 10 63 66 133
54 256 -43 76 -60 134 -84 206 -83 64 1 126 23 181 65 17 12 50 38 74 56 52
39 105 43 156 11 19 -11 34 -24 34 -28 0 -4 -20 -27 -45 -51 -46 -45 -58 -83
-29 -94 9 -3 17 -6 19 -6 2 0 23 18 47 40 47 43 65 49 75 24 4 -10 -10 -32
-42 -64 -37 -37 -46 -52 -40 -69 9 -30 38 -26 78 9 39 33 55 37 63 15 4 -9
-10 -33 -35 -60 -35 -38 -40 -48 -31 -65 15 -28 34 -25 77 14 65 57 90 16 28
-44 -71 -69 -18 -110 55 -44 37 34 43 36 57 22 14 -14 12 -20 -21 -56 -38 -42
-46 -76 -20 -86 17 -6 56 17 88 53 23 25 44 27 53 5 3 -10 -8 -29 -32 -54 -22
-23 -35 -45 -33 -56 6 -34 41 -26 92 20 48 44 76 50 76 17 0 -10 -13 -30 -30
-46 -33 -31 -39 -69 -14 -79 23 -9 21 -10 74 40 l49 45 68 -31 c37 -17 109
-43 158 -57 155 -43 211 -63 257 -92 42 -27 78 -67 91 -101 3 -8 6 1 6 20 1
42 -26 89 -71 123 -31 24 -201 87 -234 87 -8 0 -16 6 -19 13 -2 6 -27 219 -55
472 -58 521 -60 530 -139 572 -39 20 -58 23 -156 23 l-111 0 -12 118 c-14 145
-41 253 -87 348 -87 180 -252 269 -402 216z m172 -91 c123 -56 216 -255 232
-493 l6 -98 -321 0 -322 0 0 38 c0 54 27 218 46 282 64 218 220 335 359 271z"/>
<path d="M2030 3044 c0 -45 157 -140 305 -183 39 -11 161 -37 272 -56 242 -42
321 -62 614 -155 378 -120 507 -149 704 -155 131 -4 226 13 302 55 21 12 30
19 19 15 -57 -17 -201 -35 -284 -35 -188 0 -342 33 -713 150 -288 92 -402 121
-629 160 -289 50 -441 103 -538 186 -45 38 -52 41 -52 18z"/>
<path d="M1930 2854 c0 -16 13 -32 43 -52 63 -43 146 -87 200 -107 26 -10 47
-23 47 -29 0 -6 -9 -101 -21 -211 -14 -121 -19 -215 -15 -239 5 -24 22 -54 46
-80 l39 -41 851 -3 c832 -2 853 -2 884 17 52 33 76 87 76 174 l0 74 46 18 c25
10 70 41 102 72 37 35 45 47 24 33 -109 -73 -261 -105 -497 -104 -220 0 -315
17 -590 104 -249 80 -383 113 -595 150 -96 17 -218 42 -270 56 -110 28 -285
112 -335 159 -34 31 -35 32 -35 9z"/>
<path d="M1550 1892 c-61 -30 -79 -105 -38 -157 12 -15 45 -38 73 -51 52 -22
85 -48 85 -64 0 -38 -94 -54 -150 -25 l-30 16 0 -40 c0 -22 5 -43 11 -46 21
-13 125 -17 165 -6 58 15 87 50 88 105 1 54 -23 84 -98 119 -61 29 -80 49 -71
76 10 32 76 39 139 15 13 -5 16 1 16 29 0 23 -6 37 -16 41 -33 13 -139 6 -174
-12z"/>
<path d="M1830 1715 l0 -195 40 0 40 0 0 80 0 80 85 0 85 0 0 -80 0 -80 40 0
40 0 0 195 0 195 -40 0 -40 0 0 -80 0 -80 -85 0 -85 0 0 80 0 80 -40 0 -40 0
0 -195z"/>
<path d="M2335 1891 c-68 -42 -96 -94 -97 -177 -1 -68 16 -114 55 -152 76 -74
210 -66 279 16 78 93 45 275 -58 318 -49 20 -142 18 -179 -5z m159 -81 c63
-75 36 -207 -45 -225 -85 -19 -147 71 -120 173 23 82 114 111 165 52z"/>
<path d="M2690 1715 l0 -195 115 0 115 0 0 30 0 29 -72 3 -73 3 -3 48 -3 47
65 0 66 0 0 35 0 35 -65 0 -65 0 0 45 0 45 70 0 70 0 0 35 0 35 -110 0 -110 0
0 -195z"/>
<path d="M3023 1890 c-39 -23 -53 -48 -53 -93 0 -46 32 -85 94 -112 59 -26 89
-55 80 -78 -12 -33 -92 -39 -144 -12 l-30 16 0 -40 c0 -35 3 -40 31 -50 71
-25 175 -7 209 36 24 31 27 99 4 131 -8 12 -39 34 -67 48 -89 45 -111 80 -66
105 22 11 87 8 122 -6 14 -6 17 -2 17 28 0 42 -10 47 -98 47 -49 0 -76 -5 -99
-20z"/>
<path d="M3343 1890 c-39 -23 -53 -48 -53 -93 0 -46 31 -83 94 -111 28 -13 59
-32 69 -43 50 -56 -56 -90 -141 -44 -21 11 -22 10 -22 -28 0 -35 3 -40 31 -50
44 -15 123 -14 163 3 45 19 66 52 66 102 0 55 -23 82 -99 119 -69 33 -89 67
-55 92 19 15 90 13 127 -2 14 -6 17 -2 17 28 0 42 -10 47 -98 47 -49 0 -76 -5
-99 -20z"/>
<path d="M3630 1715 l0 -195 40 0 40 0 0 80 0 80 85 0 85 0 0 -80 0 -80 40 0
40 0 0 195 0 195 -40 0 -40 0 0 -80 0 -80 -85 0 -85 0 0 80 0 80 -40 0 -40 0
0 -195z"/>
<path d="M4135 1891 c-90 -46 -129 -184 -80 -281 62 -120 238 -134 321 -24 25
32 29 48 32 114 5 90 -16 143 -70 181 -46 33 -148 38 -203 10z m153 -73 c84
-91 31 -250 -78 -234 -129 19 -112 256 17 256 28 0 46 -7 61 -22z"/>
<path d="M4490 1716 l0 -196 40 0 40 0 0 64 0 63 60 7 c105 12 159 84 132 175
-17 56 -56 73 -174 79 l-98 5 0 -197z m181 102 c14 -21 10 -65 -7 -82 -9 -9
-32 -16 -55 -16 l-39 0 0 59 c0 39 4 61 13 64 19 6 79 -10 88 -25z"/>
</g>
</svg>
